<?xml version="1.0"?>
<svg xmlns:rdf="http://www.w3.org/1999/02/22-rdf-syntax-ns#" xmlns="http://www.w3.org/2000/svg" xmlns:cc="http://creativecommons.org/ns#" xmlns:dc="http://purl.org/dc/elements/1.1/" xmlns:svg="http://www.w3.org/2000/svg" id="svg2" viewBox="0 0 400 400" version="1.1">
  <g id="layer1" transform="translate(-240 -26.98)">
    <path id="rect3815" stroke-linejoin="round" d="m516.93 213.62c41.498-6.0778 21.374-17.926 59.791-1.6682-20.068 54.669-29.494 111.96-87.55 178.73-27.54 35.15-58.985 29.595-94.86-18.781 8.9016-64.844 130.99-95.854 122.62-158.28z" stroke="#2b0000" stroke-linecap="round" stroke-width="3.3863" fill="#621010"/>
    <path id="path3818" stroke-linejoin="round" d="m362.69 173c44.781-4.9834 69.526-24.492 200.97 33.352-20.068 54.669-29.494 111.96-87.55 178.73-28.087 35.697-63.362 26.312-88.293-24.8-35.968-59.919-16.748-124.86-25.122-187.28z" stroke="#2b0000" stroke-linecap="round" stroke-width="3.3863" fill="#8e1a1a"/>
    <path id="path2995" d="m341.65 206.51c-19.739 3.4702-52.787 43.43-9.666 25.373" stroke="#500" stroke-width="3.3831" fill="#f60"/>
    <path id="path2991" d="m366.89 213.28c-16.051-34.1-44.758-53.304-77.221-70.019-12.608-3.2602-30.483-38.088-12.038-33.45 3.1228 31.433 63.561 31.866 22.861 2.191-18.663-7.4661-15.621-51.277-4.4624-44.2-13.444 12.943 5.9131 54.822 19.403 30.602-28.369-14.777 17.481-81.299 6.8688-32.924 1.8139 33.979 15.962-0.63693 28.145-5.6078-2.012 17.744-36.069 59.746-7.5564 67.113 10.208-7.2847 24.438-41.871 12.573-11.835-15.303 13.877-9.0983 28.036 5.7961 8.9063 24.551-10.276-8.0652 32.857-14.527 41.124-20.643 15.792 49.926 44.654 20.158 48.098z" stroke="#520" stroke-width="3.3831" fill="#946240"/>
    <path id="path2987" d="m317.57 311.58c2.4502 29.878 48.118 22.395 72.777 18.416 28.589 22.424 62.156 89.108 80.814-49.137 2.0185-33.739-10.839-70.785-36.767-93.232-25.638-15.157-69.13-22.964-89.059 4.8771-14.396 15.281-20.78 26.145-20.347 44.109 1.0427 43.315-20.641 53.114-7.4173 74.967z" stroke="#500" stroke-width="3.3831" fill="#f60"/>
    <path id="path2985" d="m329.52 274.97c-68.786-14.352 0.42155 90.757 17.989 26.341-0.53772-10.815-7.8424-20.969-17.989-26.341z" stroke="#800000" stroke-width="4.17" fill="#f00"/>
    <path id="path2989" d="m431.3 206.9c26.352-10.215 52.743-26.771 81.841-22.54 27.576-0.005 70.765 11.922 83.253-20.894-9.2434-3.3225-48.834 20.787-64.06-4.9787 22.8-13.943 68.395-10.647 70.195-44.523 1.9448-37.718-19.532 54.299-44.385 18.687 14.404-12.039 43.007-45.132 26.587-70.695 0.5946 14.562-34.335 58.667-30.829 21.522 4.7845-18.16-12.723-30.52-11.593-6.0979 1.348 20.485-1.3283 65.939-30.445 57.249-3.0285-14.117 1.3838-64.07-4.874-22.008 4.6394 14.209-3.7749 42.263-10.681 13.733-10.582-40.033-20.734 20.346-12.694 34.389 12.555 41.842-53.055 17.966-55.445 45.266l1.7818 0.5076 1.3477 0.38397z" stroke="#520" stroke-width="3.3831" fill="#946240"/>
    <path id="path2993" d="m438.77 227.36c-16.327 23.081 19.45 44.777 37.925 44.453-2.1385-25.006-9.9537-36.615-25.842-49.89" stroke="#500" stroke-width="3.3831" fill="#f60"/>
    <path id="path3025" stroke-linejoin="round" d="m398.19 243.96c-1.5463 4.0525-3.1713 0.13238-6.9121-1.295-3.7407-1.4274-8.1806 0.17844-6.6343-3.874s5.8323-6.1805 9.573-4.7531 5.5196 5.8696 3.9733 9.9221z" stroke="#500" stroke-linecap="round" stroke-width="3.3831" fill="#fff"/>
    <path id="path3027" stroke-linejoin="round" d="m347.09 227.66c0 2.6692-2.1638 1.2034-4.833 1.2034s-4.833 1.4658-4.833-1.2034 2.1638-4.833 4.833-4.833 4.833 2.1638 4.833 4.833z" stroke="#500" stroke-linecap="round" stroke-width="3.3831" fill="#fff"/>
    <path id="path3035" stroke-linejoin="round" d="m409.23 284.24c4.2336 30.637-36.008 50.757-57.176 48.978" stroke="#500" stroke-linecap="round" stroke-width="3.6956" fill="none"/>
    <path id="path3884" d="m-109 258a24 24 0 1 1 -48 0 24 24 0 1 1 48 0z" fill="#f34a00" transform="matrix(.77083 0 0 .77083 504.03 72.605)"/>
  </g>
  <metadata>
    <rdf:RDF>
      <cc:Work>
        <dc:format>image/svg+xml</dc:format>
        <dc:type rdf:resource="http://purl.org/dc/dcmitype/StillImage"/>
        <cc:license rdf:resource="http://creativecommons.org/licenses/publicdomain/"/>
        <dc:publisher>
          <cc:Agent rdf:about="http://openclipart.org/">
            <dc:title>Openclipart</dc:title>
          </cc:Agent>
        </dc:publisher>
        <dc:title>rudolph</dc:title>
        <dc:date>2010-11-29T06:56:04</dc:date>
        <dc:description>Christmas folklore, cartoon, clip art, clipart, red-nosed, reindeer, rudolph, </dc:description>
        <dc:source>http://openclipart.org/detail/98617/rudolph-by-hector-gomez</dc:source>
        <dc:creator>
          <cc:Agent>
            <dc:title>hector gomez</dc:title>
          </cc:Agent>
        </dc:creator>
        <dc:subject>
          <rdf:Bag>
            <rdf:li>Christmas folklore</rdf:li>
            <rdf:li>cartoon</rdf:li>
            <rdf:li>clip art</rdf:li>
            <rdf:li>clipart</rdf:li>
            <rdf:li>red-nosed</rdf:li>
            <rdf:li>reindeer</rdf:li>
            <rdf:li>rudolph</rdf:li>
          </rdf:Bag>
        </dc:subject>
      </cc:Work>
      <cc:License rdf:about="http://creativecommons.org/licenses/publicdomain/">
        <cc:permits rdf:resource="http://creativecommons.org/ns#Reproduction"/>
        <cc:permits rdf:resource="http://creativecommons.org/ns#Distribution"/>
        <cc:permits rdf:resource="http://creativecommons.org/ns#DerivativeWorks"/>
      </cc:License>
    </rdf:RDF>
  </metadata>
</svg>
